<?xml version="1.0" standalone="no"?>
<!DOCTYPE svg PUBLIC "-//W3C//DTD SVG 20010904//EN"
 "http://www.w3.org/TR/2001/REC-SVG-20010904/DTD/svg10.dtd">
<svg version="1.0" xmlns="http://www.w3.org/2000/svg"
 width="120.000000pt" height="80.000000pt" viewBox="0 0 120.000000 80.000000"
 preserveAspectRatio="xMidYMid meet">

<g transform="translate(0.000000,80.000000) scale(0.100000,-0.100000)"
fill="#000000" stroke="none">
<path d="M200 595 l0 -65 -33 0 c-25 0 -42 -9 -70 -38 l-37 -38 0 -157 0 -157
225 0 225 0 0 158 0 158 -38 37 c-28 27 -46 37 -70 37 l-32 0 0 65 0 65 -85 0
-85 0 0 -65z m160 -20 l0 -75 -75 0 -75 0 0 75 0 75 75 0 75 0 0 -75z m-160
-65 c0 -5 -9 -10 -20 -10 -11 0 -20 -4 -20 -9 0 -13 238 -12 245 0 4 5 -3 9
-14 9 -12 0 -21 5 -21 10 0 6 15 10 33 10 25 0 38 -8 60 -35 l28 -35 -207 0
c-226 0 -212 -4 -165 53 15 18 81 24 81 7z m300 -215 l0 -145 -215 0 -215 0 0
145 0 145 215 0 215 0 0 -145z"/>
<path d="M290 575 c-7 -8 -17 -12 -23 -8 -6 4 -7 1 -3 -6 6 -9 13 -8 27 5 10
9 19 19 19 21 0 7 -8 2 -20 -12z"/>
<path d="M600 335 c0 -25 5 -45 10 -45 6 0 10 9 10 19 0 12 8 21 23 24 l22 4
-22 2 c-13 0 -23 7 -23 15 0 8 10 17 23 19 16 3 13 5 -10 6 -33 1 -33 0 -33
-44z"/>
<path d="M680 335 c0 -25 5 -45 10 -45 6 0 10 9 10 20 0 11 4 20 9 20 5 0 13
-9 16 -20 3 -11 11 -20 16 -20 6 0 7 5 3 12 -4 6 -7 26 -6 45 1 30 -1 33 -28
33 -29 0 -30 -2 -30 -45z m42 20 c0 -5 -5 -11 -11 -13 -6 -2 -11 4 -11 13 0 9
5 15 11 13 6 -2 11 -8 11 -13z"/>
<path d="M772 368 c-15 -15 -15 -51 0 -66 15 -15 55 -16 63 -1 10 15 -3 24
-18 11 -18 -16 -39 1 -35 29 2 19 8 24 31 22 15 -1 25 2 22 8 -9 13 -49 11
-63 -3z"/>
<path d="M860 335 c0 -25 5 -45 10 -45 6 0 10 9 10 20 0 11 4 20 9 20 5 0 11
-9 14 -20 3 -11 10 -20 17 -20 6 0 8 5 4 12 -4 6 -7 26 -6 45 1 30 -1 33 -28
33 -29 0 -30 -2 -30 -45z m42 20 c0 -5 -5 -11 -11 -13 -6 -2 -11 4 -11 13 0 9
5 15 11 13 6 -2 11 -8 11 -13z"/>
<path d="M952 368 c-15 -15 -15 -51 0 -66 15 -15 55 -16 63 -1 10 15 -3 24
-18 11 -18 -16 -39 1 -35 29 2 19 8 24 31 22 15 -1 25 2 22 8 -9 13 -49 11
-63 -3z"/>
<path d="M1040 335 c0 -44 1 -45 31 -45 17 0 28 4 24 10 -3 6 -15 10 -26 10
-10 0 -19 5 -19 10 0 6 9 10 20 10 11 0 20 5 20 10 0 6 -10 10 -22 10 -25 0
-14 15 17 23 13 3 9 5 -12 6 -33 1 -33 0 -33 -44z"/>
</g>
</svg>
